<svg width="32" height="32" viewBox="0 0 32 32" fill="none" xmlns="http://www.w3.org/2000/svg">
<g clip-path="url(#clip0_244_339)">
<circle cx="16" cy="16" r="14.75" fill="#045749" stroke="#35EFAE" stroke-width="2.5"/>
<path d="M18.2877 10.1898C17.7512 9.65332 16.881 9.65342 16.3443 10.1898C15.8078 10.7264 15.8078 11.5965 16.3443 12.1332L18.7897 14.5785H10.4156C9.65696 14.5787 9.04167 15.1938 9.04162 15.9525C9.04162 16.7112 9.65693 17.3263 10.4156 17.3265H18.8834L16.3443 19.8656C15.8078 20.4021 15.808 21.2723 16.3443 21.8089C16.881 22.3456 17.7511 22.3456 18.2877 21.8089L23.1256 16.971C23.662 16.4344 23.6621 15.5642 23.1256 15.0277L18.2877 10.1898Z" fill="white"/>
</g>
<defs>
<clipPath id="clip0_244_339">
<rect width="32" height="32" fill="white"/>
</clipPath>
</defs>
</svg>
