<svg width="32" height="32" viewBox="0 0 32 32" fill="none" xmlns="http://www.w3.org/2000/svg">
<g clip-path="url(#clip0_244_361)">
<circle cx="16" cy="16" r="14.75" fill="#045749" stroke="#35EFAE" stroke-width="2.5"/>
<path d="M10.1904 18.0024C9.65393 17.4659 9.65403 16.5957 10.1904 16.0591C10.727 15.5225 11.5971 15.5225 12.1338 16.0591L14.5791 18.5044L14.5791 10.1304C14.5793 9.37168 15.1944 8.75639 15.9531 8.75634C16.7119 8.75634 17.3269 9.37165 17.3271 10.1304L17.3271 18.5981L19.8662 16.0591C20.4027 15.5225 21.2729 15.5227 21.8095 16.0591C22.3462 16.5957 22.3462 17.4658 21.8095 18.0024L16.9717 22.8403C16.435 23.3767 15.5648 23.3769 15.0283 22.8403L10.1904 18.0024Z" fill="white"/>
</g>
<defs>
<clipPath id="clip0_244_361">
<rect width="32" height="32" fill="white"/>
</clipPath>
</defs>
</svg>
