<svg width="32" height="32" viewBox="0 0 32 32" fill="none" xmlns="http://www.w3.org/2000/svg">
<g clip-path="url(#clip0_244_350)">
<circle cx="16" cy="16" r="14.75" fill="#045749" stroke="#35EFAE" stroke-width="2.5"/>
<path d="M21.8096 13.9965C22.3461 14.533 22.346 15.4032 21.8096 15.9398C21.273 16.4764 20.4029 16.4764 19.8662 15.9398L17.4209 13.4945L17.4209 21.8685C17.4207 22.6272 16.8056 23.2425 16.0469 23.2426C15.2881 23.2426 14.6731 22.6273 14.6729 21.8685L14.6729 13.4008L12.1338 15.9398C11.5973 16.4764 10.7271 16.4762 10.1905 15.9398C9.65384 15.4032 9.65384 14.5331 10.1905 13.9965L15.0283 9.15858C15.565 8.62218 16.4352 8.62203 16.9717 9.15858L21.8096 13.9965Z" fill="white"/>
</g>
<defs>
<clipPath id="clip0_244_350">
<rect width="32" height="32" fill="white"/>
</clipPath>
</defs>
</svg>
