<svg width="32" height="32" viewBox="0 0 32 32" fill="none" xmlns="http://www.w3.org/2000/svg">
<path d="M17.9444 15.4444V11.1111C17.9444 10.0372 17.0739 9.16661 16 9.16661C14.9261 9.16661 14.0555 10.0372 14.0555 11.1111V15.4444C14.0555 16.5183 14.9261 17.3888 16 17.3888V19.3333C13.9192 19.3333 12.2204 17.6991 12.1164 15.6442L12.1111 15.4444L12.1111 11.1111C12.1111 8.96328 13.8522 7.22217 16 7.22217C18.1477 7.22217 19.8889 8.96328 19.8889 11.1111V15.4444C19.8889 17.5922 18.1477 19.3333 16 19.3333V17.3888C17.0739 17.3888 17.9444 16.5183 17.9444 15.4444Z" fill="#E5E5E5"/>
<rect x="9" y="13.8719" width="14" height="8.90579" rx="2" fill="#F5A028"/>
<path d="M9.77783 15.557C9.77783 15.0047 10.2255 14.557 10.7778 14.557H11.3334V22.0927H10.7778C10.2255 22.0927 9.77783 21.645 9.77783 21.0927V15.557Z" fill="#FFD59A"/>
<path d="M22.2222 15.557C22.2222 15.0047 21.7745 14.557 21.2222 14.557H20.6666V22.0927H21.2222C21.7745 22.0927 22.2222 21.645 22.2222 21.0927V15.557Z" fill="#FFD59A"/>
</svg>
