<svg width="32" height="32" viewBox="0 0 32 32" fill="none" xmlns="http://www.w3.org/2000/svg">
<g clip-path="url(#clip0_244_297)">
<circle cx="16" cy="16" r="14.75" fill="#045749" stroke="#35EFAE" stroke-width="2.5"/>
<path d="M14.2817 10.1898C14.8183 9.65333 15.6885 9.65343 16.2251 10.1898C16.7617 10.7264 16.7616 11.5965 16.2251 12.1331L13.7798 14.5784H22.1538C22.9125 14.5786 23.5277 15.1938 23.5278 15.9525C23.5278 16.7112 22.9125 17.3263 22.1538 17.3265H13.686L16.2251 19.8655C16.7616 20.4021 16.7614 21.2723 16.2251 21.8089C15.6885 22.3455 14.8184 22.3455 14.2817 21.8089L9.44384 16.971C8.90747 16.4344 8.90731 15.5642 9.44384 15.0277L14.2817 10.1898Z" fill="white"/>
</g>
<defs>
<clipPath id="clip0_244_297">
<rect width="32" height="32" fill="white"/>
</clipPath>
</defs>
</svg>
