<svg width="24" height="24" viewBox="0 0 24 24" fill="none" xmlns="http://www.w3.org/2000/svg">
<circle cx="12" cy="12" r="8.79858" fill="#FFC300"/>
<path d="M11.5389 7.08413C11.7102 6.67501 12.2899 6.67501 12.4612 7.08413L13.5648 9.71905C13.6369 9.89116 13.7989 10.0088 13.9848 10.0242L16.8318 10.2595C17.2739 10.2961 17.453 10.8474 17.1168 11.1368L14.9519 13.0006C14.8105 13.1223 14.7487 13.3127 14.7915 13.4943L15.4474 16.2747C15.5493 16.7064 15.0803 17.0471 14.7012 16.8168L12.2596 15.3338C12.1001 15.237 11.9 15.237 11.7405 15.3338L9.2989 16.8168C8.91979 17.0471 8.45084 16.7064 8.55269 16.2747L9.20862 13.4943C9.25147 13.3127 9.18961 13.1223 9.0482 13.0006L6.88328 11.1368C6.54713 10.8474 6.72625 10.2961 7.1683 10.2595L10.0153 10.0242C10.2013 10.0088 10.3632 9.89116 10.4353 9.71905L11.5389 7.08413Z" fill="#C56300"/>
</svg>
