<svg width="24" height="24" viewBox="0 0 24 24" fill="none" xmlns="http://www.w3.org/2000/svg">
<path d="M13.6716 18.3963C13.6716 19.1551 13.0564 19.7704 12.2975 19.7704C11.5387 19.7704 10.9235 19.1551 10.9234 18.3963L10.9234 8.03242C10.9234 7.27353 11.5386 6.65833 12.2975 6.65833C13.0564 6.65833 13.6716 7.27353 13.6716 8.03242L13.6716 18.3963Z" fill="#006494"/>
<path d="M18.0601 10.5246C18.5967 11.0612 18.5967 11.9312 18.0601 12.4678C17.5235 13.0045 16.6535 13.0045 16.1168 12.4678L12.2505 8.60156L8.38426 12.4678C7.84768 13.0044 6.97762 13.0043 6.44099 12.4678C5.90437 11.9312 5.90437 11.0612 6.44099 10.5246L11.2789 5.68666C11.8155 5.15004 12.6856 5.15004 13.2222 5.68666L18.0601 10.5246Z" fill="#006494"/>
</svg>
